# xmcd
#
# Track frame offsets:
#	150
#	17779
#	31893
#	49277
#	68559
#
# Disc length: 1148 seconds
#
# Revision: 1
# Processed by: cddbd v1.4PL0 Copyright (c) Steve Scherf et al.
# Submitted via: audiograbber 1.81.02
#
DISCID=39047a05
DTITLE=sascha klave - sascha klave
DYEAR=2002
DGENRE=blues
TTITLE0=hard time killing flow
TTITLE1=god don't ever change
TTITLE2=death letter blues
TTITLE3=instrumental 1 and 2
TTITLE4=jesus gonna be here
EXTD=
EXTT0=
EXTT1=
EXTT2=
EXTT3=
EXTT4=
PLAYORDER=
